<mxfile host="app.diagrams.net" modified="2023-05-05T02:46:00.773Z" agent="Mozilla/5.0 (X11; Linux x86_64) AppleWebKit/537.36 (KHTML, like Gecko) Chrome/112.0.0.0 Safari/537.36" version="21.2.9" etag="f6FrOMhMM0eoC38PKSFy" type="github">
  <diagram name="PÃ¡gina-1" id="oEpO8tNpdV807kie08I9">
    <mxGraphModel>
      <root>
        <mxCell id="0" />
        <mxCell id="1" parent="0" />
      </root>
    </mxGraphModel>
  </diagram>
</mxfile>
